<svg width="206" height="66" viewBox="0 0 206 66" fill="none" xmlns="http://www.w3.org/2000/svg">
<rect y="0.5" width="206" height="65" rx="8" fill="white"/>
<g clip-path="url(#clip0)">
<path d="M88.3026 22.9102C88.3222 23.2983 88.2605 23.6863 88.1214 24.0501C87.9823 24.414 87.7686 24.746 87.4936 25.0258C87.1877 25.3374 86.8183 25.5823 86.4094 25.7446C86.0005 25.9068 85.5614 25.9827 85.1206 25.9673C84.678 25.9769 84.2381 25.8974 83.828 25.7337C83.418 25.5699 83.0466 25.3254 82.7368 25.0152C82.4145 24.7087 82.1608 24.3397 81.9919 23.9317C81.8229 23.5238 81.7423 23.0859 81.7553 22.6457C81.7438 22.2074 81.8251 21.7714 81.994 21.3654C82.163 20.9594 82.4159 20.5922 82.7368 20.2868C83.0466 19.9766 83.418 19.7321 83.828 19.5684C84.2381 19.4046 84.678 19.3251 85.1206 19.3348C85.5769 19.3302 86.029 19.4203 86.4473 19.5992C86.8363 19.756 87.1832 19.9985 87.4612 20.308L86.8896 20.8686C86.6743 20.6175 86.4024 20.4189 86.0954 20.2885C85.7884 20.1582 85.4547 20.0997 85.1206 20.1176C84.7932 20.1126 84.4681 20.1718 84.1643 20.2917C83.8606 20.4115 83.5843 20.5897 83.3516 20.8157C83.1043 21.053 82.9103 21.3384 82.7822 21.6535C82.654 21.9687 82.5945 22.3067 82.6074 22.6457C82.5876 22.9919 82.6438 23.3381 82.7722 23.6612C82.9006 23.9842 83.0982 24.2764 83.3516 24.5181C83.8304 24.9724 84.4706 25.2264 85.1368 25.2264C85.803 25.2264 86.4431 24.9724 86.9219 24.5181C87.2546 24.1691 87.4496 23.7153 87.472 23.2381H85.1206V22.4024H88.2487C88.2834 22.5696 88.3014 22.7396 88.3026 22.9102Z" fill="black" stroke="black" stroke-width="0.2" stroke-miterlimit="10"/>
<path d="M93.2743 20.2872H90.3188V22.297H92.9831V23.0586H90.3188V25.0473H93.2743V25.8195H89.4883V19.4727H93.2743V20.2872Z" fill="black" stroke="black" stroke-width="0.2" stroke-miterlimit="10"/>
<path d="M96.7833 25.8176H95.9419V20.2852H94.1406V19.4707H98.6062V20.2852H96.7833V25.8176Z" fill="black" stroke="black" stroke-width="0.2" stroke-miterlimit="10"/>
<path d="M101.844 25.8195V19.4727H102.674V25.8195H101.844Z" fill="black" stroke="black" stroke-width="0.2" stroke-miterlimit="10"/>
<path d="M106.326 25.8195H105.485V20.2872H103.684V19.4727H108.128V20.2872H106.326V25.8195Z" fill="black" stroke="black" stroke-width="0.2" stroke-miterlimit="10"/>
<path d="M116.554 25.0037C116.243 25.3095 115.873 25.5521 115.466 25.7176C115.059 25.883 114.622 25.9682 114.181 25.9682C113.741 25.9682 113.304 25.883 112.897 25.7176C112.49 25.5521 112.12 25.3095 111.808 25.0037C111.496 24.6932 111.25 24.3246 111.085 23.9194C110.92 23.5143 110.84 23.0809 110.848 22.6448C110.839 22.2086 110.919 21.775 111.084 21.3698C111.249 20.9646 111.495 20.596 111.808 20.2859C112.119 19.9804 112.488 19.7381 112.894 19.5727C113.301 19.4074 113.736 19.3223 114.176 19.3223C114.616 19.3223 115.051 19.4074 115.458 19.5727C115.864 19.7381 116.233 19.9804 116.544 20.2859C116.855 20.5948 117.101 20.9616 117.265 21.3649C117.43 21.7682 117.511 22.1998 117.504 22.6342C117.516 23.0714 117.438 23.5066 117.275 23.9137C117.112 24.3207 116.867 24.6915 116.554 25.0037ZM112.423 24.5171C112.65 24.7488 112.923 24.9315 113.226 25.0535C113.529 25.1755 113.854 25.2342 114.181 25.2259C114.508 25.2323 114.833 25.1727 115.136 25.0508C115.438 24.9289 115.712 24.7472 115.94 24.5171C116.177 24.2742 116.362 23.9871 116.484 23.6728C116.607 23.3585 116.663 23.0233 116.651 22.6871C116.663 22.3526 116.605 22.0193 116.483 21.7068C116.361 21.3943 116.176 21.109 115.94 20.8677C115.715 20.6299 115.444 20.4404 115.141 20.3111C114.838 20.1818 114.511 20.1156 114.181 20.1166C113.854 20.1082 113.529 20.1669 113.226 20.289C112.923 20.411 112.65 20.5937 112.423 20.8254C112.183 21.0647 111.995 21.3495 111.871 21.6622C111.747 21.975 111.689 22.3093 111.7 22.6448C111.681 22.989 111.736 23.3334 111.86 23.6558C111.985 23.9782 112.176 24.2716 112.423 24.5171Z" fill="black" stroke="black" stroke-width="0.2" stroke-miterlimit="10"/>
<path d="M118.668 25.8195V19.4727H119.682L122.832 24.4126V23.1962V19.4727H123.662V25.8195H122.788L119.552 20.6468V21.8739V25.8195H118.668Z" fill="black" stroke="black" stroke-width="0.2" stroke-miterlimit="10"/>
<path d="M110.642 35.0952C109.736 35.0994 108.852 35.3666 108.101 35.8631C107.35 36.3597 106.766 37.0633 106.422 37.8851C106.079 38.7069 105.991 39.6102 106.17 40.4809C106.35 41.3516 106.788 42.1506 107.43 42.7773C108.072 43.4039 108.889 43.83 109.777 44.0017C110.666 44.1735 111.587 44.0832 112.423 43.7423C113.259 43.4015 113.974 42.8252 114.477 42.0864C114.98 41.3475 115.248 40.4792 115.248 39.5909C115.257 38.9964 115.143 38.4061 114.915 37.8554C114.686 37.3047 114.347 36.8047 113.917 36.3852C113.487 35.9657 112.976 35.6354 112.413 35.4137C111.851 35.1921 111.248 35.0838 110.642 35.0952ZM110.642 42.3201C110.288 42.312 109.939 42.2345 109.616 42.0921C109.293 41.9497 109.002 41.7453 108.761 41.4909C108.52 41.2366 108.333 40.9374 108.211 40.6111C108.09 40.2848 108.036 39.9379 108.053 39.5909C108.021 39.238 108.063 38.8823 108.178 38.5465C108.293 38.2106 108.479 37.902 108.722 37.6403C108.966 37.3785 109.262 37.1695 109.593 37.0265C109.923 36.8835 110.281 36.8096 110.642 36.8096C111.003 36.8096 111.361 36.8835 111.691 37.0265C112.022 37.1695 112.318 37.3785 112.562 37.6403C112.806 37.902 112.991 38.2106 113.106 38.5465C113.221 38.8823 113.264 39.238 113.231 39.5909C113.247 39.937 113.192 40.2828 113.07 40.6079C112.948 40.933 112.761 41.2308 112.519 41.4841C112.278 41.7373 111.988 41.9407 111.666 42.0825C111.343 42.2242 110.995 42.3014 110.642 42.3095V42.3201ZM100.6 35.0952C99.6943 35.0994 98.8101 35.3666 98.0591 35.8631C97.3081 36.3597 96.7238 37.0633 96.3802 37.8851C96.0365 38.7069 95.9488 39.6102 96.1281 40.4809C96.3074 41.3516 96.7457 42.1506 97.3877 42.7773C98.0297 43.4039 98.8465 43.83 99.7352 44.0017C100.624 44.1735 101.544 44.0832 102.381 43.7423C103.217 43.4015 103.932 42.8252 104.435 42.0864C104.937 41.3475 105.206 40.4792 105.206 39.5909C105.215 38.9964 105.101 38.4061 104.873 37.8554C104.644 37.3047 104.305 36.8047 103.875 36.3852C103.445 35.9657 102.934 35.6354 102.371 35.4137C101.809 35.1921 101.206 35.0838 100.6 35.0952ZM100.6 42.3201C100.246 42.312 99.897 42.2345 99.5739 42.0921C99.2508 41.9497 98.96 41.7453 98.7187 41.4909C98.4775 41.2366 98.2906 40.9374 98.1691 40.6111C98.0476 40.2848 97.9939 39.9379 98.0113 39.5909C97.9784 39.238 98.0209 38.8823 98.1361 38.5465C98.2512 38.2106 98.4365 37.902 98.6801 37.6403C98.9237 37.3785 99.2202 37.1695 99.5508 37.0265C99.8814 36.8835 100.239 36.8096 100.6 36.8096C100.961 36.8096 101.319 36.8835 101.649 37.0265C101.98 37.1695 102.276 37.3785 102.52 37.6403C102.764 37.902 102.949 38.2106 103.064 38.5465C103.179 38.8823 103.222 39.238 103.189 39.5909C103.205 39.937 103.15 40.2828 103.028 40.6079C102.906 40.933 102.718 41.2308 102.477 41.4841C102.236 41.7373 101.946 41.9407 101.624 42.0825C101.301 42.2242 100.953 42.3014 100.6 42.3095V42.3201ZM88.6487 36.4598V38.3744H93.3084C93.2313 39.2702 92.8517 40.1152 92.2298 40.7757C91.7616 41.2416 91.1993 41.6065 90.5789 41.847C89.9585 42.0874 89.2937 42.1981 88.6272 42.172C87.254 42.172 85.9371 41.637 84.9662 40.6848C83.9952 39.7326 83.4497 38.4411 83.4497 37.0945C83.4497 35.7478 83.9952 34.4564 84.9662 33.5041C85.9371 32.5519 87.254 32.017 88.6272 32.017C89.9307 32.0044 91.188 32.49 92.1327 33.371L93.535 32.0276C92.8917 31.4045 92.1283 30.9133 91.2894 30.5827C90.4504 30.2522 89.5528 30.0889 88.6487 30.1023C86.7488 30.1022 84.9251 30.8358 83.5726 32.1444C82.22 33.453 81.4474 35.2313 81.4219 37.0945C81.4474 38.9566 82.2204 40.7339 83.5733 42.0408C84.9261 43.3477 86.7498 44.079 88.6487 44.076C89.572 44.117 90.4935 43.9635 91.3512 43.6259C92.2089 43.2884 92.983 42.7746 93.6213 42.1191C94.7513 40.9015 95.3547 39.3008 95.3039 37.6551C95.3104 37.2541 95.2742 36.8535 95.1961 36.4598H88.6487ZM137.522 37.9407C137.237 37.1331 136.709 36.4289 136.008 35.921C135.308 35.4131 134.466 35.1252 133.596 35.0952C133.005 35.0941 132.422 35.2116 131.88 35.4406C131.338 35.6696 130.85 36.0051 130.445 36.4265C130.041 36.8479 129.729 37.3461 129.529 37.8904C129.328 38.4346 129.244 39.0134 129.281 39.5909C129.268 40.1821 129.376 40.7699 129.6 41.3191C129.824 41.8682 130.158 42.3675 130.583 42.7872C131.008 43.2068 131.515 43.5382 132.073 43.7614C132.631 43.9847 133.23 44.0953 133.833 44.0866C134.587 44.0906 135.331 43.911 135.997 43.564C136.664 43.2169 137.232 42.7132 137.651 42.0979L136.087 41.0401C135.855 41.4225 135.524 41.7387 135.129 41.9576C134.734 42.1765 134.287 42.2905 133.833 42.2883C133.366 42.3058 132.904 42.185 132.508 41.9416C132.111 41.6983 131.799 41.3436 131.611 40.9238L137.737 38.4379L137.522 37.9407ZM131.266 39.4428C131.244 39.1156 131.289 38.7875 131.398 38.4775C131.507 38.1676 131.678 37.8821 131.901 37.6378C132.124 37.3935 132.394 37.1952 132.696 37.0547C132.999 36.9142 133.326 36.8342 133.66 36.8194C134.008 36.797 134.355 36.8752 134.658 37.0445C134.961 37.2137 135.207 37.4665 135.364 37.7715L131.266 39.4428ZM126.282 43.801H128.289V30.5783H126.282V43.801ZM122.971 36.0896H122.906C122.599 35.7646 122.224 35.5077 121.808 35.3362C121.391 35.1647 120.942 35.0826 120.49 35.0952C119.274 35.0952 118.108 35.5689 117.249 36.412C116.389 37.2551 115.906 38.3986 115.906 39.5909C115.906 40.7833 116.389 41.9268 117.249 42.7699C118.108 43.613 119.274 44.0866 120.49 44.0866C120.947 44.0934 121.4 44.0023 121.817 43.8196C122.235 43.6369 122.606 43.367 122.906 43.0288H122.971V43.6741C122.971 45.3983 122.033 46.308 120.522 46.308C120.019 46.2965 119.531 46.1384 119.12 45.854C118.709 45.5695 118.394 45.1716 118.214 44.7107L116.456 45.43C116.789 46.2179 117.354 46.8909 118.078 47.3636C118.802 47.8363 119.653 48.0874 120.522 48.0852C122.885 48.0852 124.891 46.7206 124.891 43.399V35.3491H122.971V36.0896ZM120.663 42.3095C120.312 42.3001 119.967 42.2221 119.648 42.0801C119.329 41.9382 119.042 41.7351 118.804 41.4829C118.565 41.2306 118.381 40.9342 118.261 40.6112C118.142 40.2881 118.089 39.9448 118.106 39.6015C118.087 39.2557 118.139 38.9097 118.258 38.5836C118.376 38.2575 118.56 37.9578 118.798 37.7018C119.036 37.4459 119.323 37.2389 119.643 37.0929C119.963 36.9469 120.31 36.8647 120.663 36.8512C121.01 36.8684 121.349 36.9539 121.662 37.1027C121.975 37.2514 122.253 37.4604 122.482 37.717C122.71 37.9736 122.884 38.2727 122.992 38.5965C123.1 38.9202 123.141 39.262 123.111 39.6015C123.138 39.9382 123.095 40.2766 122.985 40.5967C122.875 40.9168 122.701 41.2119 122.472 41.4646C122.244 41.7172 121.966 41.9222 121.655 42.0674C121.344 42.2125 121.007 42.2949 120.663 42.3095ZM146.96 30.5783H142.138V43.801H144.155V38.7976H146.96C148.101 38.826 149.206 38.4101 150.035 37.6409C150.864 36.8717 151.348 35.8118 151.382 34.6932C151.351 33.5728 150.868 32.5102 150.039 31.7387C149.21 30.9672 148.102 30.5499 146.96 30.5783ZM146.96 36.9252H144.155V32.4189H147.014C147.331 32.3977 147.649 32.4406 147.949 32.545C148.248 32.6494 148.522 32.8131 148.755 33.0259C148.987 33.2387 149.172 33.496 149.299 33.7819C149.426 34.0678 149.491 34.3762 149.491 34.688C149.491 34.9997 149.426 35.3081 149.299 35.594C149.172 35.8799 148.987 36.1373 148.755 36.35C148.522 36.5628 148.248 36.7265 147.949 36.8309C147.649 36.9353 147.331 36.9782 147.014 36.957L146.96 36.9252ZM159.45 35.0952C158.715 35.0545 157.984 35.2249 157.346 35.5857C156.708 35.9464 156.191 36.4818 155.859 37.1262L157.649 37.8561C157.826 37.5353 158.095 37.2722 158.423 37.0993C158.751 36.9264 159.123 36.8512 159.494 36.8829C159.75 36.8536 160.009 36.8746 160.257 36.9446C160.504 37.0147 160.735 37.1324 160.936 37.2909C161.137 37.4495 161.304 37.6456 161.426 37.868C161.549 38.0903 161.625 38.3344 161.651 38.586V38.7235C160.986 38.3807 160.245 38.2062 159.494 38.2158C157.574 38.2158 155.61 39.2736 155.61 41.1882C155.63 41.5965 155.732 41.9968 155.911 42.3656C156.091 42.7344 156.344 43.0642 156.656 43.3354C156.968 43.6066 157.332 43.8137 157.726 43.9446C158.121 44.0754 158.539 44.1273 158.954 44.0972C159.461 44.128 159.967 44.0245 160.418 43.7974C160.87 43.5703 161.251 43.2281 161.521 42.8067H161.597V43.8645H163.538V38.7129C163.549 36.3646 161.759 35.0952 159.45 35.0952ZM159.213 42.3412C158.555 42.3412 157.628 42.0239 157.628 41.22C157.628 40.1621 158.782 39.8131 159.785 39.8131C160.43 39.7924 161.068 39.9461 161.629 40.2573C161.544 40.8255 161.253 41.3445 160.809 41.7194C160.365 42.0943 159.799 42.3 159.213 42.2989V42.3412ZM170.625 35.3914L168.317 41.1247H168.252L165.858 35.3914H163.7L167.292 43.399L165.232 47.789H167.324L172.869 35.3174L170.625 35.3914ZM152.536 43.801H154.553V30.5783H152.536V43.801Z" fill="black"/>
<path d="M33.6374 18.9315C33.2832 19.3479 33.1056 19.8818 33.1412 20.423V43.8112C33.1056 44.3524 33.2832 44.8863 33.6374 45.3028L33.7237 45.3768L47.088 32.2705V31.9637L33.7237 18.8574L33.6374 18.9315Z" fill="url(#paint0_linear)"/>
<path d="M51.5446 36.6407L47.0898 32.2719V31.9651L51.5446 27.6387H51.6417L56.8731 30.59C58.3832 31.4362 58.3832 32.8114 56.8731 33.6471L51.5985 36.5878L51.5446 36.6407Z" fill="url(#paint1_linear)"/>
<path d="M51.6392 36.5851L47.0873 32.1211L33.6367 45.3015C33.9436 45.5687 34.3365 45.7216 34.7467 45.7332C35.157 45.7448 35.5582 45.6144 35.8803 45.3649L51.6392 36.5851Z" fill="url(#paint2_linear)"/>
<path d="M51.6392 27.6382L35.8803 18.8689C35.5582 18.6195 35.157 18.4891 34.7467 18.5007C34.3365 18.5123 33.9436 18.6651 33.6367 18.9324L47.0873 32.1234L51.6392 27.6382Z" fill="url(#paint3_linear)"/>
<path opacity="0.2" d="M51.5421 36.4902L35.8803 45.2066C35.5696 45.4366 35.1909 45.561 34.8016 45.561C34.4124 45.561 34.0337 45.4366 33.723 45.2066L33.6367 45.2912L33.723 45.3653C34.0337 45.5953 34.4124 45.7197 34.8016 45.7197C35.1909 45.7197 35.5696 45.5953 35.8803 45.3653L51.6392 36.5854L51.5421 36.4902Z" fill="black"/>
<path opacity="0.12" d="M33.6374 45.143C33.2858 44.7293 33.1084 44.1997 33.1412 43.6621V43.8102C33.1056 44.3514 33.2832 44.8853 33.6374 45.3017L33.7237 45.2171L33.6374 45.143Z" fill="black"/>
<path opacity="0.12" d="M56.8697 33.4857L51.4766 36.4899L51.5736 36.5851L56.8697 33.6443C57.1797 33.5123 57.4481 33.3015 57.6472 33.0337C57.8463 32.7659 57.9689 32.4509 58.0023 32.1211C57.9353 32.4195 57.7979 32.6983 57.6012 32.9352C57.4046 33.1722 57.154 33.3607 56.8697 33.4857Z" fill="black"/>
<path opacity="0.25" d="M35.8804 19.0275L56.8706 30.7481C57.1567 30.8734 57.4084 31.0633 57.6053 31.3023C57.8021 31.5413 57.9385 31.8227 58.0032 32.1233C57.9716 31.7916 57.8498 31.4744 57.6506 31.2046C57.4514 30.9348 57.182 30.7224 56.8706 30.5894L35.8804 18.8689C34.3703 18.0332 33.1406 18.7314 33.1406 20.4239V20.572C33.1406 18.8795 34.3703 18.1813 35.8804 19.0275Z" fill="white"/>
</g>
<defs>
<linearGradient id="paint0_linear" x1="45.9015" y1="20.1797" x2="28.144" y2="38.276" gradientUnits="userSpaceOnUse">
<stop stop-color="#00A0FF"/>
<stop offset="0.01" stop-color="#00A1FF"/>
<stop offset="0.26" stop-color="#00BEFF"/>
<stop offset="0.51" stop-color="#00D2FF"/>
<stop offset="0.76" stop-color="#00DFFF"/>
<stop offset="1" stop-color="#00E3FF"/>
</linearGradient>
<linearGradient id="paint1_linear" x1="58.8793" y1="32.1238" x2="32.7763" y2="32.1238" gradientUnits="userSpaceOnUse">
<stop stop-color="#FFE000"/>
<stop offset="0.41" stop-color="#FFBD00"/>
<stop offset="0.78" stop-color="#FFA500"/>
<stop offset="1" stop-color="#FF9C00"/>
</linearGradient>
<linearGradient id="paint2_linear" x1="49.1583" y1="34.5435" x2="25.0978" y2="59.0884" gradientUnits="userSpaceOnUse">
<stop stop-color="#FF3A44"/>
<stop offset="1" stop-color="#C31162"/>
</linearGradient>
<linearGradient id="paint3_linear" x1="30.2498" y1="11.1469" x2="41.0059" y2="22.104" gradientUnits="userSpaceOnUse">
<stop stop-color="#32A071"/>
<stop offset="0.07" stop-color="#2DA771"/>
<stop offset="0.48" stop-color="#15CF74"/>
<stop offset="0.8" stop-color="#06E775"/>
<stop offset="1" stop-color="#00F076"/>
</linearGradient>
<clipPath id="clip0">
<rect width="142" height="30" fill="white" transform="translate(32 18.5)"/>
</clipPath>
</defs>
</svg>
